<?xml version="1.0" encoding="UTF-8" standalone="no"?>
<svg width="48px" height="48px" viewBox="0 0 48 48" version="1.1" xmlns="http://www.w3.org/2000/svg" xmlns:xlink="http://www.w3.org/1999/xlink" xmlns:sketch="http://www.bohemiancoding.com/sketch/ns">
    <!-- Generator: Sketch 3.4.2 (15855) - http://www.bohemiancoding.com/sketch -->
    <title>Page 1</title>
    <desc>Created with Sketch.</desc>
    <defs>
        <path id="path-1" d="M0,0 L48,0 L48,48 L0,48 L0,0 Z"></path>
    </defs>
    <g id="Page-1" stroke="none" stroke-width="1" fill="none" fill-rule="evenodd" sketch:type="MSPage">
        <g sketch:type="MSLayerGroup">
            <mask id="mask-2" sketch:name="Clip 2" fill="white">
                <use xlink:href="#path-1"></use>
            </mask>
            <g id="Clip-2"></g>
            <path d="M37.2938655,40.179375 L31.599138,24.4578471 L33.8025194,19.7058536 L40.4077098,37.0103595 C39.9084049,37.6390342 39.374424,38.2394439 38.8073699,38.8069266 C38.3254029,39.2885948 37.8201244,39.746369 37.2938655,40.179375 L37.2938655,40.179375 Z M13.248408,41.9718626 L17.947294,28.6780531 L22.3479375,38.3976689 C22.5950402,38.9443171 23.1349947,39.2938398 23.7345394,39.296608 L23.7410958,39.296608 C24.3383093,39.2967537 24.8782638,38.9523304 25.1295917,38.4103444 L29.7719472,28.3983184 L34.6997238,42.00275 C31.5691243,43.8680852 27.9135772,44.9396731 24.0002914,44.9401102 C20.0654424,44.9396731 16.3906632,43.8564296 13.248408,41.9718626 L13.248408,41.9718626 Z M7.48068599,36.8685981 L13.8907877,19.7185291 L16.1249112,24.6530786 L10.6526635,40.1347923 C10.1459281,39.7151902 9.65857034,39.2721312 9.19321293,38.8069266 C8.58332372,38.1969009 8.01160722,37.5491402 7.48068599,36.8685981 L7.48068599,36.8685981 Z M19.9066323,23.1346436 L23.8374017,12.0140232 L27.8653513,23.1346436 L19.9066323,23.1346436 Z M27.4215571,26.1940963 L23.7581424,34.0944165 L20.1812718,26.1940963 L27.4215571,26.1940963 Z M9.19321293,9.19292771 C12.987464,5.4010654 18.2127546,3.06061829 24.0002914,3.05988982 C29.7875368,3.06061829 35.0129731,5.4010654 38.8073699,9.19292771 C42.5989983,12.9869755 44.939918,18.2121868 44.9405008,23.9994901 C44.9400637,27.5671275 44.0494157,30.9203017 42.4789437,33.8572248 L35.3689118,15.2286412 C35.149783,14.6550394 34.6064775,14.2664704 33.9926544,14.2453446 C33.3791228,14.2237817 32.8097374,14.5734501 32.5518531,15.1307341 L30.1201639,20.3747401 L25.2580968,6.95242749 C25.0378024,6.34415019 24.4606951,5.94115737 23.8139445,5.94363418 C23.1670481,5.946111 22.5928548,6.35362037 22.377514,6.96350033 L17.5973289,20.4870711 L15.1491759,15.0794494 C14.8942055,14.5159005 14.3223433,14.1606957 13.7040036,14.1818215 C13.0858097,14.2023645 12.5392988,14.5955958 12.3226468,15.1748797 L5.41498862,33.6557284 C3.91080892,30.7673218 3.06022765,27.4856839 3.05964486,23.9994901 C3.06066474,18.2124782 5.40100167,12.9869755 9.19321293,9.19292771 L9.19321293,9.19292771 Z M24.0002914,0 C10.7447443,0.00131125647 0.00101988162,10.7445812 0,23.9994901 C0.00101988162,37.2554188 10.7447443,47.9986887 24.0002914,48 C37.2556928,47.9989801 47.9991258,37.2554188 48,23.9994901 C47.9991258,10.7445812 37.2556928,0.00101986614 24.0002914,0 L24.0002914,0 Z" id="Fill-1" fill="#2E2E2E" sketch:type="MSShapeGroup" mask="url(#mask-2)"></path>
        </g>
    </g>
</svg>