<?xml version="1.0" encoding="utf-8"?>
<!-- Generator: Adobe Illustrator 19.1.0, SVG Export Plug-In . SVG Version: 6.00 Build 0)  -->
<svg version="1.1" id="Layer_1" xmlns="http://www.w3.org/2000/svg" xmlns:xlink="http://www.w3.org/1999/xlink" x="0px" y="0px"
	 viewBox="-489 898 100 102.5" style="enable-background:new -489 898 100 102.5;" xml:space="preserve">
<path d="M-411.1,912.3c-1,0-1.9,0.8-1.9,1.9v8c-0.8-0.5-1.6-0.9-2.5-1.2v-14.2c0-1-0.8-1.9-1.9-1.9c-1,0-1.9,0.8-1.9,1.9v13.1
	c-0.9-0.2-1.7-0.3-2.5-0.4v-14.5c0-1-0.8-1.9-1.9-1.9c-1,0-1.9,0.8-1.9,1.9V919c-1,0-1.8,0-2.5,0c-0.2-3.2-1.2-7.5-6.7-7.5
	c-3.3,0-7.2,3.8-7.7,7.5c-0.1,1,0.6,2,1.6,2.1c1,0.1,1.8-0.6,2.1-1.6c0.6-2.1,2.4-4.3,4.1-4.3c2.3,0.1,3,0.8,3,5.8c0,0,0,2.7,0,4.7
	c0,2.8-2.1,4.4-4.6,4.4c-0.8,0-1.6-0.4-2.2-1c-0.8-0.9-1.1-2.2-0.9-3.8c0.1-1-0.6-1.9-1.6-2.1c-1-0.1-1.9,0.6-2.1,1.6
	c-0.4,3.4,0.7,5.5,1.8,6.7c1.3,1.4,3.1,2.3,5,2.3c1,0,2-0.1,3-0.4c0.2,0,0.8,0,1.1,0.3c0.4,0.3,0.5,1.1,0.5,1.6
	c0,19.5-15.9,35.4-35.4,35.4c-1,0-1.9,0.8-1.9,1.9c0,1,0.8,1.9,1.9,1.9c21.5,0,39.1-17.5,39.1-39.1c0-2.4-1-3.7-1.8-4.4
	c-0.1-0.1-0.3-0.2-0.4-0.3l1-1.1c1.7,0.2,5.9,1.1,7.9,4.6c0.3,0.6,1,0.9,1.6,0.9c0.3,0,0.6-0.1,0.9-0.3c0.9-0.5,1.2-1.7,0.7-2.5
	c-2.6-4.5-7.4-5.9-10-6.3v-3.1c3.3-0.1,10.6,0.1,14.9,3.9v8.7c0,29.8-24.2,54-54,54c-1,0-1.9,0.8-1.9,1.9c0,1,0.8,1.9,1.9,1.9
	c31.8,0,57.7-25.9,57.7-57.7v-21.2C-409.2,913.1-410.1,912.3-411.1,912.3z"/>
</svg>
