<?xml version="1.0" encoding="UTF-8" standalone="no"?>
<svg width="64px" height="64px" viewBox="0 0 64 64" version="1.1" xmlns="http://www.w3.org/2000/svg" xmlns:xlink="http://www.w3.org/1999/xlink" xmlns:sketch="http://www.bohemiancoding.com/sketch/ns">
    <!-- Generator: Sketch 3.4.4 (17249) - http://www.bohemiancoding.com/sketch -->
    <title>Rectangle 2 + Icon Copy 3</title>
    <desc>Created with Sketch.</desc>
    <defs>
        <linearGradient x1="50%" y1="100%" x2="50%" y2="0%" id="linearGradient-1">
            <stop stop-color="#7F61AF" offset="0%"></stop>
            <stop stop-color="#9A5CB4" offset="100%"></stop>
        </linearGradient>
        <linearGradient x1="50%" y1="0%" x2="50%" y2="100%" id="linearGradient-2">
            <stop stop-color="#FFFFFF" offset="0%"></stop>
            <stop stop-color="#FFE6EE" offset="100%"></stop>
        </linearGradient>
        <filter x="-50%" y="-50%" width="200%" height="200%" filterUnits="objectBoundingBox" id="filter-3">
            <feOffset dx="0" dy="-1" in="SourceAlpha" result="shadowOffsetOuter1"></feOffset>
            <feGaussianBlur stdDeviation="0" in="shadowOffsetOuter1" result="shadowBlurOuter1"></feGaussianBlur>
            <feColorMatrix values="0 0 0 0 0   0 0 0 0 0   0 0 0 0 0  0 0 0 0.0726788949 0" in="shadowBlurOuter1" type="matrix" result="shadowMatrixOuter1"></feColorMatrix>
            <feMerge>
                <feMergeNode in="shadowMatrixOuter1"></feMergeNode>
                <feMergeNode in="SourceGraphic"></feMergeNode>
            </feMerge>
        </filter>
        <filter x="-50%" y="-50%" width="200%" height="200%" filterUnits="objectBoundingBox" id="filter-4">
            <feOffset dx="0" dy="-2" in="SourceAlpha" result="shadowOffsetOuter1"></feOffset>
            <feGaussianBlur stdDeviation="0" in="shadowOffsetOuter1" result="shadowBlurOuter1"></feGaussianBlur>
            <feColorMatrix values="0 0 0 0 0   0 0 0 0 0   0 0 0 0 0  0 0 0 0.0726788949 0" in="shadowBlurOuter1" type="matrix" result="shadowMatrixOuter1"></feColorMatrix>
            <feMerge>
                <feMergeNode in="shadowMatrixOuter1"></feMergeNode>
                <feMergeNode in="SourceGraphic"></feMergeNode>
            </feMerge>
        </filter>
    </defs>
    <g id="Page-1" stroke="none" stroke-width="1" fill="none" fill-rule="evenodd" sketch:type="MSPage">
        <g id="Rectangle-2-+-Icon-Copy-3" sketch:type="MSLayerGroup">
            <rect id="Rectangle-2" fill="#D8D8D8" sketch:type="MSShapeGroup" x="0" y="0" width="64" height="64"></rect>
            <g id="Icon-Copy-3" sketch:type="MSShapeGroup">
                <rect id="Rectangle-21" fill="url(#linearGradient-1)" x="0" y="0" width="64" height="64"></rect>
                <path d="M39.1242426,10.8743958 C35.189632,8.82155555 28.8093087,8.82210822 24.8757574,10.8743958 L17.1813064,14.888892 C13.2466958,16.9417323 10.0570638,22.2044205 10.0570638,26.6426627 L10.0570638,36.6462262 C10.0570638,41.0848142 13.2477551,46.3477092 17.1813064,48.3999969 L24.8757574,52.4144931 C28.810368,54.4673333 35.1906913,54.4667807 39.1242426,52.4144931 L46.8186936,48.3999969 C50.7533042,46.3471566 53.9429362,41.0844684 53.9429362,36.6462262 L53.9429362,26.6426627 C53.9429362,22.2040747 50.7522449,16.9411796 46.8186936,14.888892 L39.1242426,10.8743958 Z M38.5092596,13.0508708 C35.0899288,11.201069 29.5322529,11.1607162 26.0886834,12.9644907 L18.512489,16.9329735 C15.0721249,18.735069 12.2831588,23.3436493 12.2831588,27.2214102 L12.2831588,36.0674787 C12.2831588,39.9475299 15.0689195,44.5521409 18.512489,46.3559154 L26.0886834,50.3243982 C29.5290474,52.1264936 35.0870846,52.0893586 38.5092596,50.2380181 L45.5255952,46.4422955 C48.944926,44.5924936 51.7168412,39.9452396 51.7168412,36.0674787 L51.7168412,27.2214102 C51.7168412,23.341359 48.9477702,18.697934 45.5255952,16.8465934 L38.5092596,13.0508708 Z" id="Dyno" fill="url(#linearGradient-2)" filter="url(#filter-3)"></path>
                <path d="M26.4758359,34.4904537 C26.421725,33.9207931 26.6189126,33.3362086 27.0635834,32.9056926 C27.0635834,32.9056926 28.2803143,31.7553603 30.1031693,29.9147406 C24.4288404,23.3168955 15.8458492,12.5000786 18.292786,10.0532875 C20.4247836,15.3396753 27.2346753,22.9953179 32.0086335,27.9618651 C36.7825918,22.9953179 43.5924835,15.3396753 45.724481,10.0532875 C48.1714179,12.5000786 39.5884267,23.3168955 33.9140978,29.9147406 C35.7369528,31.7553603 36.9536836,32.9056926 36.9536836,32.9056926 C37.7424814,33.6693811 37.7525258,34.9178753 36.9625217,35.7078795 L37.4979777,35.1724234 C36.7140611,35.95634 35.4659566,35.9256994 34.7307904,35.1164075 C34.7307904,35.1164075 33.6379538,33.9434548 32.0086335,32.100034 C30.3793133,33.9434548 29.2864767,35.1164075 29.2864767,35.1164075 C28.5594271,35.9167644 27.330703,35.9555685 26.5454224,35.1980902 C26.5453084,35.1981317 26.5451944,35.1981731 26.5450804,35.1982145 L27.0547454,35.7078795 C26.8866607,35.5397948 26.7547932,35.3509549 26.6589376,35.1504452 C26.8207704,35.0734365 26.9821424,34.9576021 27.1257335,34.8074002 C27.1257335,34.8074002 33.7366757,27.9606494 38.5363616,22.2354479 C41.7263209,18.4303739 43.1874748,16.1565692 42.8680409,15.8372204 C40.5164342,18.6827939 39.8944092,19.956764 36.6366369,23.6840641 C32.4874056,28.4313051 26.6273009,34.3028162 26.6273009,34.3028162 C26.5694239,34.3612564 26.5191569,34.4244335 26.4758359,34.4904537 Z M25.9891419,35.2210901 L24.9616642,34.1936125 C24.6798307,33.9117789 24.2273624,33.9136076 23.9471606,34.1938094 C23.6650052,34.4759648 23.6668705,34.92822 23.9469636,35.2083131 L24.2763047,35.5376542 C24.2297014,35.5749601 24.1846985,35.61519 24.1415471,35.6583413 L18.1554194,41.644469 C17.5186467,42.2812418 17.51363,43.3086376 18.154119,43.9491266 C18.7901735,44.5851811 19.8245047,44.5820981 20.4587766,43.9478262 L26.4449043,37.9616985 C26.4880736,37.9185291 26.5283394,37.8735645 26.5656973,37.8270468 L27.3537304,38.6150799 C27.635564,38.8969134 28.0880322,38.8950848 28.3682341,38.6148829 C28.6503894,38.3327276 28.6485241,37.8804723 28.368431,37.6003793 L26.5930829,35.8250312 C26.5486141,35.7666409 26.4996573,35.7104935 26.4462047,35.6570409 C26.3932435,35.6040797 26.337521,35.5555497 26.2794981,35.5114463 L26.2765718,35.50852 C26.2922515,35.5620237 26.3134711,35.6034501 26.3388333,35.6288123 L25.823978,35.113957 C25.8713222,35.1613012 25.9270887,35.196829 25.9891419,35.2210901 Z M37.4515698,37.8270468 C37.4889277,37.8735645 37.5291935,37.9185291 37.5723628,37.9616985 L43.5584905,43.9478262 C44.1927624,44.5820981 45.2270936,44.5851811 45.8631481,43.9491266 C46.5036371,43.3086376 46.4986204,42.2812418 45.8618477,41.644469 L39.87572,35.6583413 C39.8325686,35.61519 39.7875656,35.5749601 39.7409624,35.5376542 L40.0703035,35.2083131 C40.3503965,34.92822 40.3522619,34.4759648 40.0701065,34.1938094 C39.7899047,33.9136076 39.3374364,33.9117789 39.0556029,34.1936125 L37.737769,35.5114463 C37.6797461,35.5555497 37.6240236,35.6040797 37.5710624,35.6570409 C37.5176098,35.7104935 37.468653,35.7666409 37.4241842,35.8250312 L35.648836,37.6003793 C35.368743,37.8804723 35.3668777,38.3327276 35.649033,38.6148829 C35.9292348,38.8950848 36.3817031,38.8969134 36.6635367,38.6150799 L37.4515698,37.8270468 Z M25.0312363,36.7760251 C25.2008884,36.606373 25.1964282,36.3268524 25.0323172,36.1627414 C24.8632621,35.9936863 24.5937667,35.9890893 24.4190336,36.1638224 L18.0928458,42.4900102 C17.9231937,42.6596623 17.9276539,42.9391828 18.0917649,43.1032938 C18.26082,43.2723489 18.5303154,43.2769459 18.7050485,43.1022128 L25.0312363,36.7760251 Z" id="Katanas" fill="url(#linearGradient-2)" filter="url(#filter-4)"></path>
            </g>
        </g>
    </g>
</svg>