<?xml version="1.0" encoding="UTF-8"?>
<svg width="154px" height="18px" viewBox="0 0 154 18" version="1.1" xmlns="http://www.w3.org/2000/svg" xmlns:xlink="http://www.w3.org/1999/xlink">
    <title>AlasdairMonk</title>
    <g fill-rule="evenodd">
        <path d="M4.32,17 L5.22,14.38 L10.82,14.38 L11.72,17 L15.9,17 L10.16,1.92 L5.88,1.92 L0.14,17 L4.32,17 Z M9.78,11.4 L6.26,11.4 L8.02,6.38 L9.78,11.4 Z M20.72,17 L20.72,0.4 L17.1,0.4 L17.1,17 L20.72,17 Z M27.58,17.32 C28.9,17.32 29.9466667,16.8333333 30.72,15.86 L30.72,15.86 L30.72,17 L34.36,17 L34.36,6.74 L30.72,6.74 L30.72,7.76 C29.88,6.86666667 28.82,6.42 27.54,6.42 C26.78,6.42 26.0866667,6.56333333 25.46,6.85 C24.8333333,7.13666667 24.2933333,7.52666667 23.84,8.02 C23.3866667,8.51333333 23.0333333,9.09 22.78,9.75 C22.5266667,10.41 22.4,11.1066667 22.4,11.84 C22.4,12.6266667 22.53,13.3533333 22.79,14.02 C23.05,14.6866667 23.4133333,15.2666667 23.88,15.76 C24.3466667,16.2533333 24.8933333,16.6366667 25.52,16.91 C26.1466667,17.1833333 26.8333333,17.32 27.58,17.32 Z M28.5,14.2 C28.1666667,14.2 27.8566667,14.14 27.57,14.02 C27.2833333,13.9 27.0366667,13.7333333 26.83,13.52 C26.6233333,13.3066667 26.46,13.0566667 26.34,12.77 C26.22,12.4833333 26.16,12.1733333 26.16,11.84 C26.16,11.52 26.22,11.2233333 26.34,10.95 C26.46,10.6766667 26.6233333,10.4333333 26.83,10.22 C27.0366667,10.0066667 27.2833333,9.84 27.57,9.72 C27.8566667,9.6 28.1666667,9.54 28.5,9.54 C28.82,9.54 29.1233333,9.6 29.41,9.72 C29.6966667,9.84 29.9433333,10.0066667 30.15,10.22 C30.3566667,10.4333333 30.5233333,10.6833333 30.65,10.97 C30.7766667,11.2566667 30.84,11.56 30.84,11.88 C30.84,12.2 30.7766667,12.5 30.65,12.78 C30.5233333,13.06 30.3566667,13.3066667 30.15,13.52 C29.9433333,13.7333333 29.6966667,13.9 29.41,14.02 C29.1233333,14.14 28.82,14.2 28.5,14.2 Z M39.88,17.38 C40.6,17.38 41.26,17.29 41.86,17.11 C42.46,16.93 42.9733333,16.6766667 43.4,16.35 C43.8266667,16.0233333 44.16,15.62 44.4,15.14 C44.64,14.66 44.76,14.12 44.76,13.52 C44.76,12.72 44.5133333,12.0633333 44.02,11.55 C43.5266667,11.0366667 42.78,10.68 41.78,10.48 C41.42,10.4 41.13,10.3333333 40.91,10.28 C40.69,10.2266667 40.5233333,10.1666667 40.41,10.1 C40.2966667,10.0333333 40.2233333,9.96333333 40.19,9.89 C40.1566667,9.81666667 40.14,9.72 40.14,9.6 C40.14,9.37333333 40.2433333,9.19333333 40.45,9.06 C40.6566667,8.92666667 40.9266667,8.86 41.26,8.86 C41.9,8.86 42.5533333,9.03333333 43.22,9.38 L43.22,9.38 L44.44,7.02 C43.3733333,6.58 42.2733333,6.36 41.14,6.36 C40.4466667,6.36 39.8166667,6.44666667 39.25,6.62 C38.6833333,6.79333333 38.2,7.04 37.8,7.36 C37.4,7.68 37.0933333,8.07 36.88,8.53 C36.6666667,8.99 36.56,9.50666667 36.56,10.08 C36.56,10.8666667 36.7833333,11.4833333 37.23,11.93 C37.6766667,12.3766667 38.46,12.7133333 39.58,12.94 C39.9133333,13.0066667 40.1833333,13.07 40.39,13.13 C40.5966667,13.19 40.7533333,13.2566667 40.86,13.33 C40.9666667,13.4033333 41.0366667,13.4833333 41.07,13.57 C41.1033333,13.6566667 41.12,13.7666667 41.12,13.9 C41.12,14.1266667 41.0133333,14.3133333 40.8,14.46 C40.5866667,14.6066667 40.3133333,14.68 39.98,14.68 C39.0733333,14.68 38.1133333,14.3333333 37.1,13.64 L37.1,13.64 L35.78,16.2 C37.1266667,16.9866667 38.4933333,17.38 39.88,17.38 Z M50.98,17.32 C52.3,17.32 53.3466667,16.8333333 54.12,15.86 L54.12,15.86 L54.12,17 L57.76,17 L57.76,0.4 L54.12,0.4 L54.12,7.76 C53.28,6.86666667 52.22,6.42 50.94,6.42 C50.18,6.42 49.4833333,6.56333333 48.85,6.85 C48.2166667,7.13666667 47.6733333,7.52666667 47.22,8.02 C46.7666667,8.51333333 46.4166667,9.09 46.17,9.75 C45.9233333,10.41 45.8,11.1066667 45.8,11.84 C45.8,12.6133333 45.93,13.3333333 46.19,14 C46.45,14.6666667 46.8133333,15.2466667 47.28,15.74 C47.7466667,16.2333333 48.2933333,16.62 48.92,16.9 C49.5466667,17.18 50.2333333,17.32 50.98,17.32 Z M51.9,14.2 C51.5666667,14.2 51.2566667,14.14 50.97,14.02 C50.6833333,13.9 50.4366667,13.7333333 50.23,13.52 C50.0233333,13.3066667 49.86,13.0566667 49.74,12.77 C49.62,12.4833333 49.56,12.1733333 49.56,11.84 C49.56,11.52 49.6233333,11.2233333 49.75,10.95 C49.8766667,10.6766667 50.0433333,10.4333333 50.25,10.22 C50.4566667,10.0066667 50.7033333,9.84 50.99,9.72 C51.2766667,9.6 51.58,9.54 51.9,9.54 C52.22,9.54 52.5233333,9.6 52.81,9.72 C53.0966667,9.84 53.3433333,10.0066667 53.55,10.22 C53.7566667,10.4333333 53.9233333,10.6833333 54.05,10.97 C54.1766667,11.2566667 54.24,11.56 54.24,11.88 C54.24,12.2 54.1766667,12.5 54.05,12.78 C53.9233333,13.06 53.7566667,13.3066667 53.55,13.52 C53.3433333,13.7333333 53.0966667,13.9 52.81,14.02 C52.5233333,14.14 52.22,14.2 51.9,14.2 Z M64.6,17.32 C65.92,17.32 66.9666667,16.8333333 67.74,15.86 L67.74,15.86 L67.74,17 L71.38,17 L71.38,6.74 L67.74,6.74 L67.74,7.76 C66.9,6.86666667 65.84,6.42 64.56,6.42 C63.8,6.42 63.1066667,6.56333333 62.48,6.85 C61.8533333,7.13666667 61.3133333,7.52666667 60.86,8.02 C60.4066667,8.51333333 60.0533333,9.09 59.8,9.75 C59.5466667,10.41 59.42,11.1066667 59.42,11.84 C59.42,12.6266667 59.55,13.3533333 59.81,14.02 C60.07,14.6866667 60.4333333,15.2666667 60.9,15.76 C61.3666667,16.2533333 61.9133333,16.6366667 62.54,16.91 C63.1666667,17.1833333 63.8533333,17.32 64.6,17.32 Z M65.52,14.2 C65.1866667,14.2 64.8766667,14.14 64.59,14.02 C64.3033333,13.9 64.0566667,13.7333333 63.85,13.52 C63.6433333,13.3066667 63.48,13.0566667 63.36,12.77 C63.24,12.4833333 63.18,12.1733333 63.18,11.84 C63.18,11.52 63.24,11.2233333 63.36,10.95 C63.48,10.6766667 63.6433333,10.4333333 63.85,10.22 C64.0566667,10.0066667 64.3033333,9.84 64.59,9.72 C64.8766667,9.6 65.1866667,9.54 65.52,9.54 C65.84,9.54 66.1433333,9.6 66.43,9.72 C66.7166667,9.84 66.9633333,10.0066667 67.17,10.22 C67.3766667,10.4333333 67.5433333,10.6833333 67.67,10.97 C67.7966667,11.2566667 67.86,11.56 67.86,11.88 C67.86,12.2 67.7966667,12.5 67.67,12.78 C67.5433333,13.06 67.3766667,13.3066667 67.17,13.52 C66.9633333,13.7333333 66.7166667,13.9 66.43,14.02 C66.1433333,14.14 65.84,14.2 65.52,14.2 Z M75.24,4.84 C75.52,4.84 75.7833333,4.78666667 76.03,4.68 C76.2766667,4.57333333 76.4933333,4.42666667 76.68,4.24 C76.8666667,4.05333333 77.0133333,3.83666667 77.12,3.59 C77.2266667,3.34333333 77.28,3.08 77.28,2.8 C77.28,2.52 77.2266667,2.25666667 77.12,2.01 C77.0133333,1.76333333 76.8666667,1.54666667 76.68,1.36 C76.4933333,1.17333333 76.2766667,1.02666667 76.03,0.92 C75.7833333,0.813333333 75.52,0.76 75.24,0.76 C74.96,0.76 74.6966667,0.813333333 74.45,0.92 C74.2033333,1.02666667 73.9866667,1.17333333 73.8,1.36 C73.6133333,1.54666667 73.4666667,1.76333333 73.36,2.01 C73.2533333,2.25666667 73.2,2.52 73.2,2.8 C73.2,3.08 73.2533333,3.34333333 73.36,3.59 C73.4666667,3.83666667 73.6133333,4.05333333 73.8,4.24 C73.9866667,4.42666667 74.2033333,4.57333333 74.45,4.68 C74.6966667,4.78666667 74.96,4.84 75.24,4.84 Z M77.06,17 L77.06,6.74 L73.44,6.74 L73.44,17 L77.06,17 Z M82.76,17 L82.76,12.6 C82.76,11.64 82.97,10.91 83.39,10.41 C83.81,9.91 84.44,9.66 85.28,9.66 C85.84,9.66 86.36,9.78 86.84,10.02 L86.84,10.02 L86.84,6.56 C86.6933333,6.53333333 86.5633333,6.52 86.45,6.52 L86.45,6.52 L86.14,6.52 C85.3933333,6.52 84.74,6.68333333 84.18,7.01 C83.62,7.33666667 83.1466667,7.80666667 82.76,8.42 L82.76,8.42 L82.76,6.74 L79.14,6.74 L79.14,17 L82.76,17 Z M98,17 L99.3,8.32 L102.68,17 L104.24,17 L107.8,8.32 L109.1,17 L113,17 L110.44,1.92 L106.56,1.92 L103.56,9.96 L100.54,1.92 L96.66,1.92 L94.1,17 L98,17 Z M120.44,17.38 C121.333333,17.38 122.163333,17.2466667 122.93,16.98 C123.696667,16.7133333 124.353333,16.3366667 124.9,15.85 C125.446667,15.3633333 125.876667,14.7833333 126.19,14.11 C126.503333,13.4366667 126.66,12.6933333 126.66,11.88 C126.66,11.0666667 126.506667,10.3233333 126.2,9.65 C125.893333,8.97666667 125.463333,8.39666667 124.91,7.91 C124.356667,7.42333333 123.703333,7.04333333 122.95,6.77 C122.196667,6.49666667 121.38,6.36 120.5,6.36 C119.606667,6.36 118.783333,6.5 118.03,6.78 C117.276667,7.06 116.626667,7.44333333 116.08,7.93 C115.533333,8.41666667 115.106667,8.99 114.8,9.65 C114.493333,10.31 114.34,11.02 114.34,11.78 C114.34,12.62 114.493333,13.3833333 114.8,14.07 C115.106667,14.7566667 115.53,15.3466667 116.07,15.84 C116.61,16.3333333 117.253333,16.7133333 118,16.98 C118.746667,17.2466667 119.56,17.38 120.44,17.38 Z M120.5,14.2 C120.18,14.2 119.876667,14.14 119.59,14.02 C119.303333,13.9 119.056667,13.7333333 118.85,13.52 C118.643333,13.3066667 118.476667,13.0566667 118.35,12.77 C118.223333,12.4833333 118.16,12.1666667 118.16,11.82 C118.16,11.5 118.223333,11.2 118.35,10.92 C118.476667,10.64 118.643333,10.3933333 118.85,10.18 C119.056667,9.96666667 119.303333,9.8 119.59,9.68 C119.876667,9.56 120.18,9.5 120.5,9.5 C120.82,9.5 121.123333,9.56 121.41,9.68 C121.696667,9.8 121.943333,9.96666667 122.15,10.18 C122.356667,10.3933333 122.523333,10.6433333 122.65,10.93 C122.776667,11.2166667 122.84,11.52 122.84,11.84 C122.84,12.1733333 122.776667,12.4833333 122.65,12.77 C122.523333,13.0566667 122.356667,13.3066667 122.15,13.52 C121.943333,13.7333333 121.696667,13.9 121.41,14.02 C121.123333,14.14 120.82,14.2 120.5,14.2 Z M131.96,17 L131.96,11.52 C131.96,10.84 132.123333,10.3166667 132.45,9.95 C132.776667,9.58333333 133.246667,9.4 133.86,9.4 C134.086667,9.4 134.3,9.43333333 134.5,9.5 C134.7,9.56666667 134.88,9.68 135.04,9.84 C135.226667,10.0266667 135.356667,10.2766667 135.43,10.59 C135.503333,10.9033333 135.54,11.3133333 135.54,11.82 L135.54,11.82 L135.54,17 L139.16,17 L139.16,10.48 C139.16,9.93333333 139.106667,9.44666667 139,9.02 C138.893333,8.59333333 138.693333,8.20666667 138.4,7.86 C138.04,7.43333333 137.603333,7.10333333 137.09,6.87 C136.576667,6.63666667 135.96,6.52 135.24,6.52 C134.56,6.52 133.966667,6.62333333 133.46,6.83 C132.953333,7.03666667 132.453333,7.44 131.96,8.04 L131.96,8.04 L131.96,6.74 L128.34,6.74 L128.34,17 L131.96,17 Z M144.84,17 L144.84,12.82 L148.82,17 L153.9,17 L148.46,11.48 L153.6,6.74 L148.64,6.74 L144.84,10.44 L144.84,0.4 L141.22,0.4 L141.22,17 L144.84,17 Z" id="AlasdairMonk" fill="#1F1F1F" fill-rule="nonzero"></path>
    </g>
</svg>